<?xml version="1.0" encoding="UTF-8" standalone="no"?><!DOCTYPE svg PUBLIC "-//W3C//DTD SVG 1.1//EN" "http://www.w3.org/Graphics/SVG/1.1/DTD/svg11.dtd"><svg width="100%" height="100%" viewBox="0 0 709 590" version="1.1" xmlns="http://www.w3.org/2000/svg" xmlns:xlink="http://www.w3.org/1999/xlink" xml:space="preserve" xmlns:serif="http://www.serif.com/" style="fill-rule:evenodd;clip-rule:evenodd;stroke-linecap:round;stroke-linejoin:round;stroke-miterlimit:1.5;"><g id="Artboard1" transform="matrix(0.691843,0,0,0.575418,0,0)"><rect x="0" y="0" width="1024" height="1024" style="fill:none;"/><g id="Layer1" transform="matrix(1.44541,0,0,1.73787,-168.179,-390.711)"><path d="M815.229,375.474C791.64,371.888 674.579,367.558 674.579,367.558C674.579,367.558 643.312,345.828 612.084,347.162C580.857,348.497 572.975,358.579 568.049,360.955C563.124,363.331 527.944,387.098 526.869,438.763C525.559,475.55 557.869,493.45 520.069,506.843C480.822,520.748 432.784,434.284 422.308,412.277C394.6,354.07 198.14,282.919 140.592,233.854C138.566,259.804 144.961,280.108 165.259,324.021C185.101,366.946 262.593,452.644 290.329,480.7C317.233,507.914 325.253,614.009 319.668,613.267L379.486,580.158L251.425,708.37L280.332,701.079C280.332,701.079 193.262,778.651 169.746,790.442C202.816,793.279 302.517,702.603 349.516,673.633C380.374,654.611 408.769,647.205 447.493,639.37C486.217,631.536 549.342,584.05 558.673,570.925C568.004,557.8 594.611,537.904 594.328,494.961C594.045,452.018 572.471,428.147 588.608,418.63C615.356,402.857 756.266,393.573 815.229,375.474Z" style="fill:rgb(9,29,45);stroke:black;stroke-width:1px;"/></g></g></svg>